<svg>
  <defs>
    <svg id="facebook"><path d="M17,2V2H17V6H15C14.31,6 14,6.81 14,7.5V10H14L17,10V14H14V22H10V14H7V10H10V6A4,4 0 0,1 14,2H17Z"/></svg>
    <svg id="twitter"><path d="M22.46,6C21.69,6.35 20.86,6.58 20,6.69C20.88,6.16 21.56,5.32 21.88,4.31C21.05,4.81 20.13,5.16 19.16,5.36C18.37,4.5 17.26,4 16,4C13.65,4 11.73,5.92 11.73,8.29C11.73,8.63 11.77,8.96 11.84,9.27C8.28,9.09 5.11,7.38 3,4.79C2.63,5.42 2.42,6.16 2.42,6.94C2.42,8.43 3.17,9.75 4.33,10.5C3.62,10.5 2.96,10.3 2.38,10C2.38,10 2.38,10 2.38,10.03C2.38,12.11 3.86,13.85 5.82,14.24C5.46,14.34 5.08,14.39 4.69,14.39C4.42,14.39 4.15,14.36 3.89,14.31C4.43,16 6,17.26 7.89,17.29C6.43,18.45 4.58,19.13 2.56,19.13C2.22,19.13 1.88,19.11 1.54,19.07C3.44,20.29 5.7,21 8.12,21C16,21 20.33,14.46 20.33,8.79C20.33,8.6 20.33,8.42 20.32,8.23C21.16,7.63 21.88,6.87 22.46,6Z"/></svg>
    <svg id="instagram"><path d="M7.8,2H16.2C19.4,2 22,4.6 22,7.8V16.2A5.8,5.8 0 0,1 16.2,22H7.8C4.6,22 2,19.4 2,16.2V7.8A5.8,5.8 0 0,1 7.8,2M7.6,4A3.6,3.6 0 0,0 4,7.6V16.4C4,18.39 5.61,20 7.6,20H16.4A3.6,3.6 0 0,0 20,16.4V7.6C20,5.61 18.39,4 16.4,4H7.6M17.25,5.5A1.25,1.25 0 0,1 18.5,6.75A1.25,1.25 0 0,1 17.25,8A1.25,1.25 0 0,1 16,6.75A1.25,1.25 0 0,1 17.25,5.5M12,7A5,5 0 0,1 17,12A5,5 0 0,1 12,17A5,5 0 0,1 7,12A5,5 0 0,1 12,7M12,9A3,3 0 0,0 9,12A3,3 0 0,0 12,15A3,3 0 0,0 15,12A3,3 0 0,0 12,9Z"/></svg>
    <svg id="google"><path d="M21.35,11.1H12.18V13.83H18.69C18.36,17.64 15.19,19.27 12.19,19.27C8.36,19.27 5,16.25 5,12C5,7.9 8.2,4.73 12.2,4.73C15.29,4.73 17.1,6.7 17.1,6.7L19,4.72C19,4.72 16.56,2 12.1,2C6.42,2 2.03,6.8 2.03,12C2.03,17.05 6.16,22 12.25,22C17.6,22 21.5,18.33 21.5,12.91C21.5,11.76 21.35,11.1 21.35,11.1V11.1Z"/></svg>
    <svg id="human-child"><path d="M12,2A3,3 0 0,1 15,5A3,3 0 0,1 12,8A3,3 0 0,1 9,5A3,3 0 0,1 12,2M11,22H8V16H6V9H18V16H16V22H13V18H11V22Z"/></svg>
    <svg id="login"><path d="M10,17V14H3V10H10V7L15,12L10,17M10,2H19A2,2 0 0,1 21,4V20A2,2 0 0,1 19,22H10A2,2 0 0,1 8,20V18H10V20H19V4H10V6H8V4A2,2 0 0,1 10,2Z"/></svg>
    <svg id="logout"><path d="M16,17V14H9V10H16V7L21,12L16,17M14,2A2,2 0 0,1 16,4V6H14V4H5V20H14V18H16V20A2,2 0 0,1 14,22H5A2,2 0 0,1 3,20V4A2,2 0 0,1 5,2H14Z"/></svg>
    <svg id="numeric" width="18" height="18" viewBox="0 0 24 24"><path d="M4,17V9H2V7H6V17H4M22,15C22,16.11 21.1,17 20,17H16V15H20V13H18V11H20V9H16V7H20A2,2 0 0,1 22,9V10.5A1.5,1.5 0 0,1 20.5,12A1.5,1.5 0 0,1 22,13.5V15M14,15V17H8V13C8,11.89 8.9,11 10,11H12V9H8V7H12A2,2 0 0,1 14,9V11C14,12.11 13.1,13 12,13H10V15H14Z" /></svg>
  </defs>
</svg>
